<?xml version="1.0" encoding="UTF-8" standalone="no"?>
<!DOCTYPE svg PUBLIC "-//W3C//DTD SVG 1.1//EN"
 "http://www.w3.org/Graphics/SVG/1.1/DTD/svg11.dtd">
<!-- Generated by graphviz version 2.40.1 (20161225.0304)
 -->
<!-- Title: %3 Pages: 1 -->
<svg width="1705pt" height="314pt"
 viewBox="0.00 0.00 1705.00 314.00" xmlns="http://www.w3.org/2000/svg" xmlns:xlink="http://www.w3.org/1999/xlink">
<g id="graph0" class="graph" transform="scale(1 1) rotate(0) translate(4 310)">
<title>%3</title>
<polygon fill="#ffffff" stroke="transparent" points="-4,4 -4,-310 1701,-310 1701,4 -4,4"/>
<!-- VideoSource0 -->
<g id="node1" class="node">
<title>VideoSource0</title>
<path fill="#fbfbff" stroke="transparent" d="M20,-73.5C20,-73.5 296,-73.5 296,-73.5 302,-73.5 308,-79.5 308,-85.5 308,-85.5 308,-154.5 308,-154.5 308,-160.5 302,-166.5 296,-166.5 296,-166.5 20,-166.5 20,-166.5 14,-166.5 8,-160.5 8,-154.5 8,-154.5 8,-85.5 8,-85.5 8,-79.5 14,-73.5 20,-73.5"/>
<text text-anchor="start" x="78.5" y="-147.6" font-family="Times,serif" font-size="18.00" fill="#000000">VideoSource0</text>
<text text-anchor="start" x="181.5" y="-147.6" font-family="Times,serif" font-size="14.00" fill="#000000"> </text>
<text text-anchor="start" x="185.5" y="-147.6" font-family="Times,serif" font-size="14.00" fill="#808080">⌚ 30 fps</text>
<polygon fill="#e0e0e0" stroke="transparent" points="180,-108 180,-132 300,-132 300,-108 180,-108"/>
<polygon fill="none" stroke="#8080f0" points="180,-108 180,-132 300,-132 300,-108 180,-108"/>
<text text-anchor="start" x="197" y="-116.3" font-family="courier italic" font-size="14.00" fill="#000000">debug_output</text>
<polygon fill="#e0e0e0" stroke="transparent" points="180,-81 180,-105 300,-105 300,-81 180,-81"/>
<polygon fill="none" stroke="#8080f0" points="180,-81 180,-105 300,-105 300,-81 180,-81"/>
<text text-anchor="start" x="247" y="-89.3" font-family="Courier,monospace" font-size="14.00" fill="#000000">output</text>
<path fill="none" stroke="#8080f0" d="M20,-73.5C20,-73.5 296,-73.5 296,-73.5 302,-73.5 308,-79.5 308,-85.5 308,-85.5 308,-154.5 308,-154.5 308,-160.5 302,-166.5 296,-166.5 296,-166.5 20,-166.5 20,-166.5 14,-166.5 8,-160.5 8,-154.5 8,-154.5 8,-85.5 8,-85.5 8,-79.5 14,-73.5 20,-73.5"/>
</g>
<!-- FaceDetector0 -->
<g id="node2" class="node">
<title>FaceDetector0</title>
<path fill="#fefefe" stroke="transparent" d="M409,-73C409,-73 695,-73 695,-73 701,-73 707,-79 707,-85 707,-85 707,-127 707,-127 707,-133 701,-139 695,-139 695,-139 409,-139 409,-139 403,-139 397,-133 397,-127 397,-127 397,-85 397,-85 397,-79 403,-73 409,-73"/>
<text text-anchor="start" x="498.5" y="-119.6" font-family="Times,serif" font-size="18.00" fill="#000000">FaceDetector0</text>
<polygon fill="#a0f0a0" stroke="transparent" points="405,-81 405,-105 525,-105 525,-81 405,-81"/>
<polygon fill="none" stroke="#808080" points="405,-81 405,-105 525,-105 525,-81 405,-81"/>
<text text-anchor="start" x="408" y="-89.3" font-family="Courier,monospace" font-size="14.00" fill="#000000">source</text>
<polygon fill="#e0e0e0" stroke="transparent" points="579,-81 579,-105 699,-105 699,-81 579,-81"/>
<polygon fill="none" stroke="#808080" points="579,-81 579,-105 699,-105 699,-81 579,-81"/>
<text text-anchor="start" x="646" y="-89.3" font-family="Courier,monospace" font-size="14.00" fill="#000000">output</text>
<path fill="none" stroke="#808080" d="M409,-73C409,-73 695,-73 695,-73 701,-73 707,-79 707,-85 707,-85 707,-127 707,-127 707,-133 701,-139 695,-139 695,-139 409,-139 409,-139 403,-139 397,-133 397,-127 397,-127 397,-85 397,-85 397,-79 403,-73 409,-73"/>
</g>
<!-- VideoSource0&#45;&gt;FaceDetector0 -->
<g id="edge1" class="edge">
<title>VideoSource0:e&#45;&gt;FaceDetector0:w</title>
<path fill="none" stroke="#000000" d="M300,-93C343.0208,-93 356.2968,-93 394.67,-93"/>
<polygon fill="#000000" stroke="#000000" points="395,-96.5001 405,-93 395,-89.5001 395,-96.5001"/>
<text text-anchor="middle" x="352.5" y="-96.8" font-family="Times,serif" font-size="14.00" fill="#000000">source</text>
</g>
<!-- TerminatorFilter0 -->
<g id="node3" class="node">
<title>TerminatorFilter0</title>
<path fill="#fefefe" stroke="transparent" d="M898,-45.5C898,-45.5 1184,-45.5 1184,-45.5 1190,-45.5 1196,-51.5 1196,-57.5 1196,-57.5 1196,-126.5 1196,-126.5 1196,-132.5 1190,-138.5 1184,-138.5 1184,-138.5 898,-138.5 898,-138.5 892,-138.5 886,-132.5 886,-126.5 886,-126.5 886,-57.5 886,-57.5 886,-51.5 892,-45.5 898,-45.5"/>
<text text-anchor="start" x="976" y="-118.6" font-family="Times,serif" font-size="18.00" fill="#000000">TerminatorFilter0</text>
<polygon fill="#80b0f0" stroke="transparent" points="894,-80 894,-104 1014,-104 1014,-80 894,-80"/>
<polygon fill="none" stroke="#808080" points="894,-80 894,-104 1014,-104 1014,-80 894,-80"/>
<text text-anchor="start" x="897" y="-88.3" font-family="Courier,monospace" font-size="14.00" fill="#000000">faces</text>
<polygon fill="#a0f0a0" stroke="transparent" points="894,-53 894,-77 1014,-77 1014,-53 894,-53"/>
<polygon fill="none" stroke="#808080" points="894,-53 894,-77 1014,-77 1014,-53 894,-53"/>
<text text-anchor="start" x="897" y="-61.3" font-family="Courier,monospace" font-size="14.00" fill="#000000">source</text>
<polygon fill="#e0e0e0" stroke="transparent" points="1068,-80 1068,-104 1188,-104 1188,-80 1068,-80"/>
<polygon fill="none" stroke="#808080" points="1068,-80 1068,-104 1188,-104 1188,-80 1068,-80"/>
<text text-anchor="start" x="1085" y="-88.3" font-family="courier italic" font-size="14.00" fill="#000000">debug_output</text>
<polygon fill="#e0e0e0" stroke="transparent" points="1068,-53 1068,-77 1188,-77 1188,-53 1068,-53"/>
<polygon fill="none" stroke="#808080" points="1068,-53 1068,-77 1188,-77 1188,-53 1068,-53"/>
<text text-anchor="start" x="1135" y="-61.3" font-family="Courier,monospace" font-size="14.00" fill="#000000">output</text>
<path fill="none" stroke="#808080" d="M898,-45.5C898,-45.5 1184,-45.5 1184,-45.5 1190,-45.5 1196,-51.5 1196,-57.5 1196,-57.5 1196,-126.5 1196,-126.5 1196,-132.5 1190,-138.5 1184,-138.5 1184,-138.5 898,-138.5 898,-138.5 892,-138.5 886,-132.5 886,-126.5 886,-126.5 886,-57.5 886,-57.5 886,-51.5 892,-45.5 898,-45.5"/>
</g>
<!-- VideoSource0&#45;&gt;TerminatorFilter0 -->
<g id="edge2" class="edge">
<title>VideoSource0:e&#45;&gt;TerminatorFilter0:w</title>
<path fill="none" stroke="#000000" d="M300,-93C344.9417,-93 345.4257,-56.0014 389,-45 529.4807,-9.5323 570.3353,-36.9432 715,-45 791.3363,-49.2514 812.1174,-63.6254 883.5703,-64.9083"/>
<polygon fill="#000000" stroke="#000000" points="883.9696,-68.4118 894,-65 884.0312,-61.4121 883.9696,-68.4118"/>
<text text-anchor="middle" x="552" y="-48.8" font-family="Times,serif" font-size="14.00" fill="#000000">source</text>
</g>
<!-- MainWindow0 -->
<g id="node4" class="node">
<title>MainWindow0</title>
<path fill="#eefeeb" stroke="transparent" d="M1387,-4C1387,-4 1677,-4 1677,-4 1683,-4 1689,-10 1689,-16 1689,-16 1689,-290 1689,-290 1689,-296 1683,-302 1677,-302 1677,-302 1387,-302 1387,-302 1381,-302 1375,-296 1375,-290 1375,-290 1375,-16 1375,-16 1375,-10 1381,-4 1387,-4"/>
<text text-anchor="start" x="1449" y="-283.6" font-family="Times,serif" font-size="18.00" fill="#000000">MainWindow0</text>
<text text-anchor="start" x="1559" y="-283.6" font-family="Times,serif" font-size="14.00" fill="#000000"> </text>
<text text-anchor="start" x="1563" y="-283.6" font-family="Times,serif" font-size="14.00" fill="#808080">⌚ 60 fps</text>
<path fill="#eefefe" stroke="transparent" d="M1392,-204C1392,-204 1672,-204 1672,-204 1678,-204 1684,-210 1684,-216 1684,-216 1684,-253 1684,-253 1684,-259 1678,-265 1672,-265 1672,-265 1392,-265 1392,-265 1386,-265 1380,-259 1380,-253 1380,-253 1380,-216 1380,-216 1380,-210 1386,-204 1392,-204"/>
<text text-anchor="start" x="1481.5" y="-248.8" font-family="Times,serif" font-size="14.00" fill="#000000">OpenCvDisplay0</text>
<polygon fill="#80b0f0" stroke="transparent" points="1388,-212 1388,-236 1508,-236 1508,-212 1388,-212"/>
<polygon fill="none" stroke="#50a0a0" points="1388,-212 1388,-236 1508,-236 1508,-212 1388,-212"/>
<text text-anchor="start" x="1391" y="-220.3" font-family="Courier,monospace" font-size="14.00" fill="#000000">input</text>
<path fill="none" stroke="#50a0a0" d="M1392,-204C1392,-204 1672,-204 1672,-204 1678,-204 1684,-210 1684,-216 1684,-216 1684,-253 1684,-253 1684,-259 1678,-265 1672,-265 1672,-265 1392,-265 1392,-265 1386,-265 1380,-259 1380,-253 1380,-253 1380,-216 1380,-216 1380,-210 1386,-204 1392,-204"/>
<path fill="#eefefe" stroke="transparent" d="M1392,-83C1392,-83 1672,-83 1672,-83 1678,-83 1684,-89 1684,-95 1684,-95 1684,-186 1684,-186 1684,-192 1678,-198 1672,-198 1672,-198 1392,-198 1392,-198 1386,-198 1380,-192 1380,-186 1380,-186 1380,-95 1380,-95 1380,-89 1386,-83 1392,-83"/>
<text text-anchor="start" x="1462" y="-181.8" font-family="Times,serif" font-size="14.00" fill="#000000">OpenCvDebugDisplay0</text>
<polygon fill="#80b0f0" stroke="transparent" points="1388,-145 1388,-169 1508,-169 1508,-145 1388,-145"/>
<polygon fill="none" stroke="#50a0a0" points="1388,-145 1388,-169 1508,-169 1508,-145 1388,-145"/>
<text text-anchor="start" x="1391" y="-153.3" font-family="courier italic" font-size="14.00" fill="#000000">duration</text>
<polygon fill="#80b0f0" stroke="transparent" points="1388,-118 1388,-142 1508,-142 1508,-118 1388,-118"/>
<polygon fill="none" stroke="#50a0a0" points="1388,-118 1388,-142 1508,-142 1508,-118 1388,-118"/>
<text text-anchor="start" x="1391" y="-126.3" font-family="courier italic" font-size="14.00" fill="#000000">fps</text>
<polygon fill="#80b0f0" stroke="transparent" points="1388,-91 1388,-115 1508,-115 1508,-91 1388,-91"/>
<polygon fill="none" stroke="#50a0a0" points="1388,-91 1388,-115 1508,-115 1508,-91 1388,-91"/>
<text text-anchor="start" x="1391" y="-99.3" font-family="courier italic" font-size="14.00" fill="#000000">input</text>
<path fill="none" stroke="#50a0a0" d="M1392,-83C1392,-83 1672,-83 1672,-83 1678,-83 1684,-89 1684,-95 1684,-95 1684,-186 1684,-186 1684,-192 1678,-198 1672,-198 1672,-198 1392,-198 1392,-198 1386,-198 1380,-192 1380,-186 1380,-186 1380,-95 1380,-95 1380,-89 1386,-83 1392,-83"/>
<path fill="#fefefe" stroke="transparent" d="M1390.3333,-46C1390.3333,-46 1673.6667,-46 1673.6667,-46 1678.8333,-46 1684,-51.1667 1684,-56.3333 1684,-56.3333 1684,-66.6667 1684,-66.6667 1684,-71.8333 1678.8333,-77 1673.6667,-77 1673.6667,-77 1390.3333,-77 1390.3333,-77 1385.1667,-77 1380,-71.8333 1380,-66.6667 1380,-66.6667 1380,-56.3333 1380,-56.3333 1380,-51.1667 1385.1667,-46 1390.3333,-46"/>
<text text-anchor="start" x="1455" y="-60.8" font-family="Times,serif" font-size="14.00" fill="#000000">_NoOpKeyboardHandler0</text>
<path fill="none" stroke="#808080" d="M1390.3333,-46C1390.3333,-46 1673.6667,-46 1673.6667,-46 1678.8333,-46 1684,-51.1667 1684,-56.3333 1684,-56.3333 1684,-66.6667 1684,-66.6667 1684,-71.8333 1678.8333,-77 1673.6667,-77 1673.6667,-77 1390.3333,-77 1390.3333,-77 1385.1667,-77 1380,-71.8333 1380,-66.6667 1380,-66.6667 1380,-56.3333 1380,-56.3333 1380,-51.1667 1385.1667,-46 1390.3333,-46"/>
<path fill="#fefefe" stroke="transparent" d="M1390.3333,-9C1390.3333,-9 1673.6667,-9 1673.6667,-9 1678.8333,-9 1684,-14.1667 1684,-19.3333 1684,-19.3333 1684,-29.6667 1684,-29.6667 1684,-34.8333 1678.8333,-40 1673.6667,-40 1673.6667,-40 1390.3333,-40 1390.3333,-40 1385.1667,-40 1380,-34.8333 1380,-29.6667 1380,-29.6667 1380,-19.3333 1380,-19.3333 1380,-14.1667 1385.1667,-9 1390.3333,-9"/>
<text text-anchor="start" x="1464" y="-23.8" font-family="Times,serif" font-size="14.00" fill="#000000">_NoOpMouseHandler0</text>
<path fill="none" stroke="#808080" d="M1390.3333,-9C1390.3333,-9 1673.6667,-9 1673.6667,-9 1678.8333,-9 1684,-14.1667 1684,-19.3333 1684,-19.3333 1684,-29.6667 1684,-29.6667 1684,-34.8333 1678.8333,-40 1673.6667,-40 1673.6667,-40 1390.3333,-40 1390.3333,-40 1385.1667,-40 1380,-34.8333 1380,-29.6667 1380,-29.6667 1380,-19.3333 1380,-19.3333 1380,-14.1667 1385.1667,-9 1390.3333,-9"/>
<path fill="none" stroke="#50e020" d="M1387,-4C1387,-4 1677,-4 1677,-4 1683,-4 1689,-10 1689,-16 1689,-16 1689,-290 1689,-290 1689,-296 1683,-302 1677,-302 1677,-302 1387,-302 1387,-302 1381,-302 1375,-296 1375,-290 1375,-290 1375,-16 1375,-16 1375,-10 1381,-4 1387,-4"/>
</g>
<!-- VideoSource0&#45;&gt;MainWindow0 -->
<g id="edge3" class="edge">
<title>VideoSource0:e&#45;&gt;MainWindow0:w</title>
<path fill="none" stroke="#808080" d="M300,-120C342.0347,-120 347.5897,-144.7817 389,-152 745.8415,-214.202 843.7845,-190.0756 1204,-152 1269.5357,-145.0727 1286.4761,-141.8249 1349,-121 1363.2917,-116.2399 1367.4254,-107.7847 1377.9123,-104.4294"/>
<polygon fill="#808080" stroke="#808080" points="1378.59,-107.8684 1388,-103 1377.6078,-100.9377 1378.59,-107.8684"/>
<text text-anchor="middle" x="796.5" y="-193.8" font-family="Times,serif" font-size="14.00" fill="#808080">async2v.opencv.frame</text>
</g>
<!-- FaceDetector0&#45;&gt;TerminatorFilter0 -->
<g id="edge4" class="edge">
<title>FaceDetector0:e&#45;&gt;TerminatorFilter0:w</title>
<path fill="none" stroke="#000000" d="M699,-93C782.1131,-93 805.4457,-92.0803 883.6549,-92.0049"/>
<polygon fill="#000000" stroke="#000000" points="884.0017,-95.5048 894,-92 883.9983,-88.5048 884.0017,-95.5048"/>
<text text-anchor="middle" x="796.5" y="-95.8" font-family="Times,serif" font-size="14.00" fill="#000000">faces</text>
</g>
<!-- TerminatorFilter0&#45;&gt;MainWindow0 -->
<g id="edge5" class="edge">
<title>TerminatorFilter0:e&#45;&gt;MainWindow0:w</title>
<path fill="none" stroke="#000000" d="M1188,-65C1259.5569,-65 1292.8014,-21.7042 1349,-66 1402.81,-108.4131 1324.768,-212.2486 1377.8672,-223.082"/>
<polygon fill="#000000" stroke="#000000" points="1377.725,-226.5834 1388,-224 1378.3566,-219.6119 1377.725,-226.5834"/>
<text text-anchor="middle" x="1285.5" y="-69.8" font-family="Times,serif" font-size="14.00" fill="#000000">terminator</text>
</g>
<!-- TerminatorFilter0&#45;&gt;MainWindow0 -->
<g id="edge6" class="edge">
<title>TerminatorFilter0:e&#45;&gt;MainWindow0:w</title>
<path fill="none" stroke="#808080" d="M1188,-92C1273.5458,-92 1297.1593,-102.1574 1377.8666,-102.951"/>
<polygon fill="#808080" stroke="#808080" points="1377.9831,-106.4515 1388,-103 1378.0171,-99.4515 1377.9831,-106.4515"/>
<text text-anchor="middle" x="1285.5" y="-105.8" font-family="Times,serif" font-size="14.00" fill="#808080">async2v.opencv.frame</text>
</g>
</g>
</svg>
